<svg width="1400" height="191" viewBox="0 0 1400 191" fill="none" xmlns="http://www.w3.org/2000/svg">
<path d="M225.032 187.782C242.379 187.782 256.442 173.72 256.442 156.373C256.442 139.026 242.379 124.963 225.032 124.963C207.685 124.963 193.622 139.026 193.622 156.373C193.622 173.72 207.685 187.782 225.032 187.782Z" fill="#FF3200"/>
<path d="M176.599 108.118C193.946 108.118 208.009 94.0552 208.009 76.7081C208.009 59.361 193.946 45.2983 176.599 45.2983C159.252 45.2983 145.189 59.361 145.189 76.7081C145.189 94.0552 159.252 108.118 176.599 108.118Z" fill="#FF3200"/>
<path d="M79.8062 108.118C97.1534 108.118 111.216 94.0552 111.216 76.7081C111.216 59.361 97.1534 45.2983 79.8062 45.2983C62.4591 45.2983 48.3965 59.361 48.3965 76.7081C48.3965 94.0552 62.4591 108.118 79.8062 108.118Z" fill="#FF3200"/>
<path d="M128.203 187.782C145.55 187.782 159.612 173.72 159.612 156.373C159.612 139.026 145.55 124.963 128.203 124.963C110.856 124.963 96.793 139.026 96.793 156.373C96.793 173.72 110.856 187.782 128.203 187.782Z" fill="#FF3200"/>
<path d="M31.4097 187.959C48.7569 187.959 62.8195 173.897 62.8195 156.55C62.8195 139.203 48.7569 125.14 31.4097 125.14C14.0626 125.14 0 139.203 0 156.55C0 173.897 14.0626 187.959 31.4097 187.959Z" fill="#FF3200"/>
<path d="M286.265 21.6022C286.265 20.4021 286.3 19.3078 286.371 18.3195C286.441 17.3312 286.724 16.484 287.218 15.7781C287.782 15.0721 288.63 14.5427 289.759 14.1897C290.889 13.7661 292.477 13.5543 294.524 13.5543H319.833C321.174 13.5543 322.268 13.8014 323.115 14.2956C324.033 14.7191 324.739 15.2839 325.233 15.9899C325.798 16.6958 326.151 17.4724 326.292 18.3195C326.504 19.0961 326.61 19.8373 326.61 20.5433V98.9042L364.731 56.5469C366.567 54.4997 368.755 53.476 371.297 53.476H403.806C407.689 53.476 409.63 54.9938 409.63 58.0294C409.63 58.806 409.489 59.4413 409.207 59.9355C408.995 60.4297 408.501 61.1356 407.724 62.0534L364.202 108.011L418.949 178.324H418.737C419.655 179.242 420.29 180.195 420.643 181.183C421.067 182.101 421.278 182.948 421.278 183.725C421.278 185.348 420.819 186.478 419.902 187.113C419.055 187.678 417.749 187.96 415.984 187.96H380.192C378.992 187.96 377.862 187.501 376.803 186.584C375.744 185.666 374.579 184.289 373.309 182.454L338.682 133.425L326.928 145.603V179.806C326.928 180.371 326.822 181.113 326.61 182.03C326.469 182.948 326.116 183.866 325.551 184.783C325.057 185.631 324.351 186.372 323.433 187.007C322.515 187.643 321.315 187.96 319.833 187.96H293.254C291.983 187.96 290.889 187.643 289.971 187.007C289.053 186.301 288.312 185.525 287.747 184.678C287.253 183.83 286.865 183.054 286.582 182.348C286.371 181.571 286.265 181.113 286.265 180.971V21.6022Z" fill="#FF3200"/>
<path d="M431.667 120.824C431.667 114.329 432.479 108.082 434.103 102.081C435.797 96.0804 438.127 90.5386 441.092 85.4557C444.128 80.3023 447.728 75.643 451.893 71.4779C456.129 67.2421 460.823 63.6418 465.977 60.6768C471.13 57.7117 476.672 55.4174 482.602 53.7937C488.603 52.17 494.85 51.3582 501.345 51.3582C510.946 51.3582 519.947 53.1583 528.348 56.7587C536.819 60.2885 544.161 65.1949 550.374 71.4779C556.657 77.6902 561.598 85.0322 565.199 93.5036C568.87 101.904 570.705 111.011 570.705 120.824C570.705 127.319 569.858 133.567 568.164 139.567C566.54 145.497 564.21 151.039 561.175 156.192C558.21 161.346 554.609 166.04 550.374 170.276C546.208 174.441 541.549 178.042 536.396 181.077C531.242 184.042 525.701 186.337 519.771 187.96C513.911 189.584 507.769 190.396 501.345 190.396C494.85 190.396 488.603 189.584 482.602 187.96C476.672 186.337 471.13 184.042 465.977 181.077C460.823 178.042 456.129 174.441 451.893 170.276C447.728 166.04 444.128 161.346 441.092 156.192C438.127 151.039 435.797 145.497 434.103 139.567C432.479 133.567 431.667 127.319 431.667 120.824ZM470.318 120.824C470.318 125.483 471.024 129.86 472.436 133.955C473.919 137.979 475.966 141.473 478.578 144.438C481.261 147.403 484.473 149.768 488.214 151.533C492.027 153.227 496.298 154.074 501.027 154.074C505.616 154.074 509.746 153.227 513.417 151.533C517.158 149.768 520.3 147.403 522.841 144.438C525.453 141.473 527.43 137.979 528.771 133.955C530.183 129.86 530.889 125.483 530.889 120.824C530.889 116.306 530.183 112 528.771 107.905C527.43 103.811 525.453 100.21 522.841 97.104C520.3 93.9978 517.158 91.5622 513.417 89.7974C509.746 87.9619 505.616 87.0441 501.027 87.0441C496.298 87.0441 492.027 87.9619 488.214 89.7974C484.473 91.5622 481.261 93.9978 478.578 97.104C475.966 100.21 473.919 103.811 472.436 107.905C471.024 112 470.318 116.306 470.318 120.824Z" fill="#FF3200"/>
<path d="M594.495 55.2762C595.412 54.4997 596.365 54.0055 597.354 53.7937C598.413 53.5819 599.401 53.476 600.319 53.476H616.309C617.579 53.476 618.674 53.7231 619.591 54.2173C620.509 54.6408 621.286 55.2409 621.921 56.0175C622.556 56.794 623.05 57.6764 623.403 58.6648C623.827 59.6531 624.215 60.6768 624.568 61.7357L626.792 71.0543C627.851 68.8658 629.369 66.6068 631.345 64.2771C633.322 61.9475 635.828 59.8296 638.864 57.9235C641.899 56.0175 645.5 54.4644 649.665 53.2642C653.901 51.9935 658.842 51.3582 664.49 51.3582C668.937 51.3582 672.961 51.817 676.562 52.7348C680.233 53.5819 683.551 54.8879 686.516 56.6528C689.551 58.3471 692.305 60.465 694.775 63.0064C697.246 65.4772 699.576 68.3363 701.764 71.5837C703.106 69.3953 705.082 67.1009 707.694 64.7007C710.377 62.3004 713.554 60.112 717.225 58.1353C720.896 56.1586 724.99 54.535 729.508 53.2642C734.026 51.9935 738.827 51.3582 743.91 51.3582C751.958 51.3582 758.982 52.9113 764.983 56.0175C770.983 59.1237 775.96 63.3594 779.913 68.7246C783.937 74.0899 786.938 80.3729 788.914 87.5736C790.891 94.7037 791.879 102.328 791.879 110.447V179.806C791.879 182.489 791.279 184.536 790.079 185.948C788.95 187.29 787.114 187.96 784.573 187.96H760.111C757.076 187.96 754.993 187.466 753.864 186.478C752.734 185.419 752.169 183.407 752.169 180.442V110.447C752.169 107.411 751.675 104.587 750.687 101.975C749.769 99.363 748.463 97.104 746.769 95.1979C745.075 93.2212 742.992 91.7034 740.521 90.6445C738.121 89.515 735.438 88.9502 732.473 88.9502C729.791 88.9502 727.249 89.4797 724.849 90.5386C722.449 91.5975 720.331 93.08 718.495 94.9861C716.66 96.8216 715.177 99.0807 714.048 101.763C712.989 104.375 712.46 107.27 712.46 110.447V179.806C712.46 182.489 711.859 184.536 710.659 185.948C709.53 187.29 707.694 187.96 705.153 187.96H702.929H702.082H680.692C677.656 187.96 675.573 187.466 674.444 186.478C673.314 185.419 672.75 183.407 672.75 180.442V110.447C672.75 107.411 672.291 104.587 671.373 101.975C670.526 99.363 669.255 97.104 667.561 95.1979C665.937 93.2212 663.925 91.7034 661.525 90.6445C659.195 89.515 656.548 88.9502 653.583 88.9502C651.042 88.9502 648.535 89.4797 646.065 90.5386C643.664 91.527 641.476 92.9742 639.499 94.8802C637.593 96.7157 635.969 98.9395 634.628 101.551C633.357 104.164 632.616 107.058 632.404 110.235V180.124C632.404 181.324 632.157 182.524 631.663 183.725C631.24 184.925 630.569 185.842 629.651 186.478C628.733 187.043 627.851 187.431 627.004 187.643C626.227 187.854 625.31 187.96 624.251 187.96H600.319C597.283 187.96 595.095 187.219 593.753 185.737C592.412 184.254 591.741 182.277 591.741 179.806V61.3121C591.741 59.9708 592.024 58.7354 592.589 57.6059C593.224 56.4763 594.071 55.5939 595.13 54.9585L594.495 55.2762Z" fill="#FF3200"/>
<path d="M942.233 186.16C941.315 186.937 940.327 187.431 939.268 187.643C938.279 187.854 937.326 187.96 936.409 187.96H920.419C919.148 187.96 918.054 187.748 917.136 187.325C916.218 186.831 915.442 186.195 914.806 185.419C914.171 184.642 913.642 183.76 913.218 182.771C912.794 181.783 912.441 180.76 912.159 179.701L909.935 169.323C908.876 171.512 907.111 173.841 904.641 176.312C902.17 178.712 899.099 180.936 895.428 182.983C891.828 185.031 887.662 186.725 882.933 188.066C878.203 189.407 873.049 190.078 867.472 190.078C859.424 190.078 852.294 188.525 846.082 185.419C839.869 182.313 834.61 178.077 830.304 172.712C826.068 167.346 822.856 161.099 820.667 153.969C818.479 146.768 817.385 139.108 817.385 130.99V61.6298C817.385 58.9472 817.949 56.9352 819.079 55.5939C820.279 54.182 822.15 53.476 824.691 53.476H849.153C852.188 53.476 854.271 54.0055 855.4 55.0644C856.53 56.0528 857.095 58.0294 857.095 60.9944V129.931C857.095 132.966 857.659 135.861 858.789 138.614C859.989 141.297 861.577 143.697 863.554 145.815C865.531 147.862 867.825 149.486 870.437 150.686C873.12 151.886 875.944 152.486 878.909 152.486C881.45 152.486 884.203 152.063 887.168 151.215C890.133 150.368 892.886 149.062 895.428 147.297C897.969 145.462 900.087 143.132 901.781 140.308C903.476 137.485 904.323 134.096 904.323 130.143V61.3121C904.323 60.112 904.535 58.9119 904.958 57.7118C905.452 56.5116 906.158 55.5939 907.076 54.9585C907.994 54.3938 908.841 54.0055 909.618 53.7937C910.465 53.5819 911.418 53.476 912.477 53.476H936.409C939.444 53.476 941.633 54.2173 942.974 55.6998C944.315 57.1823 944.986 59.159 944.986 61.6298V180.124C944.986 181.465 944.668 182.701 944.033 183.83C943.468 184.96 942.656 185.842 941.597 186.478L942.233 186.16ZM841.105 11.0129C841.105 8.04788 842.587 6.56538 845.552 6.56538H866.307C867.296 6.56538 868.249 6.95365 869.166 7.7302C870.155 8.50675 870.649 9.60098 870.649 11.0129V31.0267C870.649 32.2974 870.225 33.4975 869.378 34.627C868.602 35.686 867.578 36.2154 866.307 36.2154H845.552C842.587 36.2154 841.105 34.4859 841.105 31.0267V11.0129ZM887.274 11.0129C887.274 8.04788 888.827 6.56538 891.933 6.56538H912.371C915.336 6.56538 916.818 8.04788 916.818 11.0129V31.0267C916.818 32.2974 916.43 33.4975 915.654 34.627C914.877 35.686 913.783 36.2154 912.371 36.2154H891.933C888.827 36.2154 887.274 34.4859 887.274 31.0267V11.0129Z" fill="#FF3200"/>
<path d="M968.843 55.2762C969.761 54.4997 970.714 54.0055 971.702 53.7937C972.761 53.5819 973.75 53.476 974.667 53.476H990.657C991.928 53.476 993.022 53.7231 993.94 54.2173C994.858 54.6408 995.634 55.2409 996.27 56.0175C996.905 56.794 997.399 57.6764 997.752 58.6648C998.176 59.6531 998.564 60.6768 998.917 61.7357L1001.14 71.0543C1002.2 68.8658 1003.89 66.6068 1006.22 64.2771C1008.62 61.9475 1011.55 59.8296 1015.01 57.9235C1018.54 56.0175 1022.6 54.4644 1027.19 53.2642C1031.78 51.9935 1036.9 51.3582 1042.54 51.3582C1050.59 51.3582 1057.76 52.9113 1064.04 56.0175C1070.39 59.1237 1075.76 63.3594 1080.14 68.7246C1084.58 74.0899 1087.94 80.3729 1090.2 87.5736C1092.53 94.7037 1093.69 102.328 1093.69 110.447V179.806C1093.69 182.489 1093.09 184.536 1091.89 185.948C1090.76 187.29 1088.93 187.96 1086.38 187.96H1061.92C1058.89 187.96 1056.81 187.466 1055.68 186.478C1054.55 185.419 1053.98 183.407 1053.98 180.442V111.505C1053.98 108.47 1053.28 105.611 1051.86 102.928C1050.52 100.175 1048.72 97.7746 1046.46 95.7274C1044.2 93.6095 1041.63 91.9505 1038.73 90.7504C1035.91 89.5503 1033.01 88.9502 1030.05 88.9502C1027.51 88.9502 1024.9 89.515 1022.21 90.6445C1019.6 91.774 1017.17 93.3624 1014.91 95.4097C1012.72 97.3864 1010.85 99.7513 1009.29 102.505C1007.81 105.187 1006.96 108.117 1006.75 111.294V180.124C1006.75 181.324 1006.51 182.524 1006.01 183.725C1005.59 184.925 1004.92 185.842 1004 186.478C1003.08 187.043 1002.2 187.431 1001.35 187.643C1000.58 187.854 999.658 187.96 998.599 187.96H974.667C971.632 187.96 969.443 187.219 968.102 185.737C966.761 184.254 966.09 182.277 966.09 179.806V61.3121C966.09 59.9708 966.372 58.7354 966.937 57.6059C967.573 56.4763 968.42 55.5939 969.479 54.9585L968.843 55.2762Z" fill="#FF3200"/>
<path d="M1119.03 61.7357C1119.03 59.4766 1119.67 57.5353 1120.94 55.9116C1122.21 54.2879 1124.19 53.476 1126.87 53.476H1151.12C1151.97 53.476 1152.88 53.6878 1153.87 54.1114C1154.86 54.4644 1155.78 55.0291 1156.62 55.8057C1157.47 56.5116 1158.18 57.3588 1158.74 58.3471C1159.38 59.3354 1159.7 60.465 1159.7 61.7357V179.806C1159.7 182.489 1158.95 184.536 1157.47 185.948C1155.99 187.29 1153.87 187.96 1151.12 187.96H1126.87C1121.64 187.96 1119.03 185.242 1119.03 179.806V61.7357ZM1119.03 8.15377C1119.03 5.18876 1119.67 3.1062 1120.94 1.90608C1122.21 0.63536 1124.19 0 1126.87 0H1151.44C1153.91 0 1155.88 0.63536 1157.37 1.90608C1158.92 3.1062 1159.7 5.18876 1159.7 8.15377V28.8029C1159.7 29.6501 1159.48 30.5678 1159.06 31.5561C1158.71 32.5445 1158.18 33.4975 1157.47 34.4153C1156.77 35.333 1155.88 36.1096 1154.82 36.7449C1153.84 37.3097 1152.71 37.5921 1151.44 37.5921H1126.87C1121.64 37.5921 1119.03 34.6623 1119.03 28.8029V8.15377Z" fill="#FF3200"/>
<path d="M1193.27 32.5092C1193.27 30.3207 1193.97 28.697 1195.39 27.6381C1196.87 26.5086 1198.95 25.4496 1201.63 24.4613L1225.67 16.0958C1226.03 16.0252 1226.34 15.9899 1226.63 15.9899C1226.98 15.9899 1227.3 15.9899 1227.58 15.9899C1230.19 15.9899 1231.92 16.7664 1232.77 18.3195C1233.68 19.802 1234.14 21.7787 1234.14 24.2495L1234.04 53.3701H1248.54C1250.8 53.3701 1252.64 54.0408 1254.05 55.3821C1255.46 56.7234 1256.17 58.7354 1256.17 61.418V81.8554C1256.17 84.8204 1255.46 87.0088 1254.05 88.4207C1252.64 89.7621 1250.8 90.4327 1248.54 90.4327H1234.04L1234.14 179.806C1234.14 182.489 1233.37 184.536 1231.81 185.948C1230.26 187.29 1228.11 187.96 1225.35 187.96H1201.42C1195.99 187.96 1193.27 185.242 1193.27 179.806L1193.16 90.4327H1182.26C1176.82 90.4327 1174.1 87.5736 1174.1 81.8554V61.418C1174.1 56.0528 1176.82 53.3701 1182.26 53.3701H1193.16L1193.27 32.5092Z" fill="#FF3200"/>
<path d="M1384.86 171.865C1378.65 177.583 1371.66 182.066 1363.89 185.313C1356.13 188.49 1347.9 190.078 1339.22 190.078C1329.55 190.078 1320.4 188.313 1311.79 184.783C1303.18 181.254 1295.62 176.383 1289.13 170.17C1282.64 163.887 1277.48 156.51 1273.67 148.039C1269.86 139.567 1267.95 130.354 1267.95 120.4C1267.95 114.188 1268.69 108.187 1270.18 102.399C1271.73 96.5392 1273.88 91.0681 1276.63 85.9852C1279.46 80.9023 1282.85 76.243 1286.8 72.0073C1290.82 67.701 1295.31 64.03 1300.25 60.9944C1305.19 57.9588 1310.56 55.5939 1316.34 53.8996C1322.13 52.2053 1328.24 51.3582 1334.66 51.3582C1340.52 51.3582 1346.21 52.1347 1351.71 53.6878C1357.22 55.2409 1362.37 57.4294 1367.17 60.2532C1372.04 63.077 1376.49 66.4656 1380.52 70.4189C1384.54 74.3723 1388 78.7139 1390.89 83.4438C1393.79 88.1031 1396.01 93.1153 1397.56 98.4806C1399.19 103.775 1400 109.246 1400 114.894C1400 118.565 1399.93 121.565 1399.79 123.895C1399.72 126.225 1399.19 128.095 1398.2 129.507C1397.21 130.849 1395.55 131.802 1393.22 132.366C1390.96 132.861 1387.61 133.108 1383.16 133.108H1306.92C1307.63 137.626 1309.04 141.403 1311.16 144.438C1313.34 147.474 1315.85 149.909 1318.67 151.745C1321.5 153.51 1324.5 154.78 1327.68 155.557C1330.85 156.334 1333.85 156.722 1336.68 156.722C1339.22 156.722 1341.83 156.475 1344.51 155.981C1347.19 155.416 1349.77 154.71 1352.24 153.863C1354.78 152.945 1357.08 151.921 1359.13 150.792C1361.24 149.592 1362.94 148.356 1364.21 147.086C1365.34 146.168 1366.29 145.497 1367.07 145.074C1367.91 144.579 1368.8 144.332 1369.71 144.332C1370.63 144.332 1371.55 144.65 1372.47 145.285C1373.46 145.921 1374.55 146.838 1375.75 148.039L1386.98 160.746C1387.75 161.663 1388.25 162.511 1388.46 163.287C1388.67 163.993 1388.78 164.734 1388.78 165.511C1388.78 166.923 1388.39 168.158 1387.61 169.217C1386.83 170.206 1385.92 171.088 1384.86 171.865ZM1333.92 83.6556C1331.17 83.6556 1328.49 84.2203 1325.88 85.3498C1323.33 86.4088 1320.93 87.856 1318.67 89.6915C1316.42 91.5269 1314.37 93.6095 1312.53 95.9392C1310.77 98.2688 1309.32 100.634 1308.19 103.034H1362.3C1360.82 100.281 1359.2 97.7393 1357.43 95.4097C1355.74 93.08 1353.76 91.0328 1351.5 89.2679C1349.31 87.503 1346.77 86.1264 1343.88 85.1381C1341.05 84.1497 1337.74 83.6556 1333.92 83.6556Z" fill="#FF3200"/>
</svg>
